<?xml version="1.0" encoding="UTF-8"?>
<!DOCTYPE svg PUBLIC "-//W3C//DTD SVG 1.1//EN" "http://www.w3.org/Graphics/SVG/1.1/DTD/svg11.dtd">
<!-- Creator: CorelDRAW X7 -->
<svg xmlns="http://www.w3.org/2000/svg" xml:space="preserve" width="7.44782in" height="8.24336in" version="1.1" style="shape-rendering:geometricPrecision; text-rendering:geometricPrecision; image-rendering:optimizeQuality; fill-rule:evenodd; clip-rule:evenodd"
viewBox="0 0 915 1013"
 xmlns:xlink="http://www.w3.org/1999/xlink">
 <defs>
  <style type="text/css">
   <![CDATA[
    .fil0 {fill:url(#id0)}
   ]]>
  </style>
  <linearGradient id="id0" gradientUnits="userSpaceOnUse" x1="311.688" y1="702.969" x2="603.81" y2="310.319">
   <stop offset="0" style="stop-opacity:1; stop-color:#22B35E"/>
   <stop offset="1" style="stop-opacity:1; stop-color:#3AD67B"/>
  </linearGradient>
 </defs>
 <g id="Layer_x0020_1">
  <metadata id="CorelCorpID_0Corel-Layer"/>
  <path class="fil0" d="M73 200l156 -90 156 -90c46,-27 99,-27 145,0l157 90 61 36 -483 278c48,20 103,19 151,-9l400 -230 27 15c46,27 72,73 72,126l0 181 0 180c0,53 -26,99 -72,126l-156 90 -157 90c-46,27 -99,27 -145,0l-156 -90 -6 -3 332 -192c48,-27 77,-75 83,-126l-482 279 -83 -48c-47,-27 -73,-73 -73,-126l0 -180 0 -181c0,-53 26,-99 73,-126z"/>
 </g>
</svg>
